<svg version="1.1" viewBox="0.0 0.0 96.0 96.0" fill="none" stroke="none" stroke-linecap="square" stroke-miterlimit="10" xmlns:xlink="http://www.w3.org/1999/xlink" xmlns="http://www.w3.org/2000/svg"><clipPath id="p.0"><path d="m0 0l96.0 0l0 96.0l-96.0 0l0 -96.0z" clip-rule="nonzero"/></clipPath><g clip-path="url(#p.0)"><path fill="#000000" fill-opacity="0.0" d="m0 0l96.0 0l0 96.0l-96.0 0z" fill-rule="evenodd"/><path fill="#000000" fill-opacity="0.0" d="m5.03937 6.992126l85.921265 0l0 82.01575l-85.921265 0z" fill-rule="evenodd"/><path fill="#000000" d="m31.742495 14.79535l0 17.734375l-1.84375 0l0 -8.187498l-11.09375 0l0 8.187498l-1.875 0l0 -17.734375l1.875 0l0 7.906251l11.09375 0l0 -7.906251l1.84375 0zm13.529299 17.890625q-2.640625 0 -4.78125 -1.1718731q-2.140625 -1.1875 -3.34375 -3.234375q-1.203125 -2.0625 -1.203125 -4.609375q0 -2.5625 1.203125 -4.609375q1.203125 -2.0625 3.34375 -3.234376q2.140625 -1.171875 4.78125 -1.171875q2.625 0 4.734375 1.171875q2.125 1.156251 3.34375 3.218751q1.21875 2.0625 1.21875 4.625q0 2.546875 -1.21875 4.625q-1.21875 2.0625 -3.34375 3.234375q-2.109375 1.1562481 -4.734375 1.1562481zm0 -1.6718731q2.09375 0 3.796875 -0.953125q1.703125 -0.953125 2.65625 -2.625q0.96875 -1.6875 0.96875 -3.765625q0 -2.078125 -0.96875 -3.765625q-0.953125 -1.6875 -2.65625 -2.625q-1.703125 -0.953125 -3.796875 -0.953125q-2.109375 0 -3.828125 0.953125q-1.703125 0.9375 -2.671875 2.625q-0.96875 1.6875 -0.96875 3.765625q0 2.078125 0.96875 3.765625q0.96875 1.671875 2.671875 2.625q1.71875 0.953125 3.828125 0.953125z" fill-rule="nonzero"/><path fill="#000000" d="m24.63312 53.35798q-2.640625 0 -4.765625 -1.15625q-2.109375 -1.171875 -3.3125 -3.234375q-1.203124 -2.078125 -1.203124 -4.625q0 -2.5625 1.203124 -4.625q1.203125 -2.0625 3.328125 -3.21875q2.140625 -1.171875 4.765625 -1.171875q1.984375 0 3.65625 0.65625q1.671875 0.65625 2.828125 1.921875l-1.1875 1.1875q-2.078125 -2.09375 -5.25 -2.09375q-2.09375 0 -3.828125 0.96875q-1.71875 0.953125 -2.6875 2.625q-0.96875 1.671875 -0.96875 3.75q0 2.078125 0.96875 3.75q0.96875 1.671875 2.6875 2.640625q1.734375 0.953125 3.828125 0.953125q3.203125 0 5.25 -2.125l1.1875 1.1875q-1.15625 1.265625 -2.84375 1.9375q-1.6875 0.671875 -3.65625 0.671875z" fill-rule="nonzero"/><path fill="#000000" d="m31.742495 56.13935l0 17.734375l-1.84375 0l0 -8.1875l-11.09375 0l0 8.1875l-1.875 0l0 -17.734375l1.875 0l0 7.90625l11.09375 0l0 -7.90625l1.84375 0zm13.529299 17.890625q-2.640625 0 -4.78125 -1.171875q-2.140625 -1.1875 -3.34375 -3.234375q-1.203125 -2.0625 -1.203125 -4.609375q0 -2.5625 1.203125 -4.609375q1.203125 -2.0625 3.34375 -3.234375q2.140625 -1.171875 4.78125 -1.171875q2.625 0 4.734375 1.171875q2.125 1.15625 3.34375 3.21875q1.21875 2.0625 1.21875 4.625q0 2.546875 -1.21875 4.625q-1.21875 2.0625 -3.34375 3.234375q-2.109375 1.15625 -4.734375 1.15625zm0 -1.671875q2.09375 0 3.796875 -0.953125q1.703125 -0.953125 2.65625 -2.625q0.96875 -1.6875 0.96875 -3.765625q0 -2.078125 -0.96875 -3.765625q-0.953125 -1.6875 -2.65625 -2.625q-1.703125 -0.953125 -3.796875 -0.953125q-2.109375 0 -3.828125 0.953125q-1.703125 0.9375 -2.671875 2.625q-0.96875 1.6875 -0.96875 3.765625q0 2.078125 0.96875 3.765625q0.96875 1.671875 2.671875 2.625q1.71875 0.953125 3.828125 0.953125zm21.203442 1.671875q-2.6406212 0 -4.765621 -1.15625q-2.109375 -1.171875 -3.3125 -3.234375q-1.203125 -2.078125 -1.203125 -4.625q0 -2.5625 1.203125 -4.625q1.203125 -2.0625 3.328125 -3.21875q2.140625 -1.171875 4.765621 -1.171875q1.984375 0 3.65625 0.65625q1.671875 0.65625 2.828125 1.921875l-1.1875 1.1875q-2.078125 -2.09375 -5.25 -2.09375q-2.09375 0 -3.8281212 0.96875q-1.71875 0.953125 -2.6875 2.625q-0.96875 1.671875 -0.96875 3.75q0 2.078125 0.96875 3.75q0.96875 1.671875 2.6875 2.640625q1.7343712 0.953125 3.8281212 0.953125q3.203125 0 5.25 -2.125l1.1875 1.1875q-1.15625 1.265625 -2.84375 1.9375q-1.6875 0.671875 -3.65625 0.671875z" fill-rule="nonzero"/><path fill="#000000" fill-opacity="0.0" d="m25.548557 19.923885l33.35433 0l0 50.07874l-33.35433 0z" fill-rule="evenodd"/><path fill="#000000" d="m45.189182 53.400135q-2.640625 0 -4.78125 -1.171875q-2.140625 -1.1875 -3.34375 -3.234375q-1.203125 -2.0625 -1.203125 -4.609375q0 -2.5625 1.203125 -4.609375q1.203125 -2.0625 3.34375 -3.234375q2.140625 -1.171875 4.78125 -1.171875q2.625 0 4.734375 1.171875q2.125 1.15625 3.34375 3.21875q1.21875 2.0625 1.21875 4.625q0 2.546875 -1.21875 4.625q-1.21875 2.0625 -3.34375 3.234375q-2.109375 1.15625 -4.734375 1.15625zm0 -1.671875q2.09375 0 3.796875 -0.953125q1.703125 -0.953125 2.65625 -2.625q0.96875 -1.6875 0.96875 -3.765625q0 -2.078125 -0.96875 -3.765625q-0.953125 -1.6875 -2.65625 -2.625q-1.703125 -0.953125 -3.796875 -0.953125q-2.109375 0 -3.828125 0.953125q-1.703125 0.9375 -2.671875 2.625q-0.96875 1.6875 -0.96875 3.765625q0 2.078125 0.96875 3.765625q0.96875 1.671875 2.671875 2.625q1.71875 0.953125 3.828125 0.953125z" fill-rule="nonzero"/></g></svg>
