<svg version="1.1" viewBox="0.0 0.0 960.0 720.0" fill="none" stroke="none" stroke-linecap="square" stroke-miterlimit="10" xmlns:xlink="http://www.w3.org/1999/xlink" xmlns="http://www.w3.org/2000/svg"><clipPath id="p.0"><path d="m0 0l960.0 0l0 720.0l-960.0 0l0 -720.0z" clip-rule="nonzero"/></clipPath><g clip-path="url(#p.0)"><path fill="#000000" fill-opacity="0.0" d="m0 0l960.0 0l0 720.0l-960.0 0z" fill-rule="evenodd"/><path fill="#cccccc" d="m167.08661 360.0l0 0c0 -172.81729 140.0961 -312.9134 312.9134 -312.9134l0 0c82.98981 0 162.5805 32.967564 221.26318 91.65021c58.682617 58.682648 91.65021 138.2734 91.65021 221.26318l0 0c0 172.81726 -140.09613 312.9134 -312.9134 312.9134l0 0c-172.81729 0 -312.9134 -140.09613 -312.9134 -312.9134zm55.110306 0l0 0c0 142.3807 115.42238 257.8031 257.8031 257.8031c142.38074 0 257.8031 -115.42239 257.8031 -257.8031l0 0c0 -142.3807 -115.42236 -257.80307 -257.8031 -257.80307l0 0c-142.3807 0 -257.8031 115.42237 -257.8031 257.80307z" fill-rule="evenodd"/><path fill="#cccccc" d="m653.8898 493.32254l-40.566895 40.566925l-307.21262 -307.2126l40.566956 -40.56694z" fill-rule="evenodd"/><path fill="#cccccc" d="m613.3229 186.10994l40.566895 40.56694l-307.21255 307.2126l-40.566956 -40.566925z" fill-rule="evenodd"/></g></svg>